<svg version="1.1" id="Layer_1" xmlns="http://www.w3.org/2000/svg" xmlns:xlink="http://www.w3.org/1999/xlink" x="0" y="0" viewBox="0 0 300.1 603.5" xml:space="preserve"><style>.st57,.st59{opacity:.25;fill:none;stroke:#fff;stroke-width:2.2984;stroke-miterlimit:10;enable-background:new}.st59{stroke-width:2.7194}</style><defs><path id="SVGID_1_" d="M148 0h151.1v172.7H148z"/></defs><clipPath id="SVGID_2_"><use xlink:href="#SVGID_1_" overflow="visible"/></clipPath><path d="M223.7 160.6c-7.7 0-17.6-6.8-22.8-10.8-3.4-2.7-6.7-5.6-9-8.1-3.6-3.9-5.1-6.6-5.2-9.4 0-.4-.2-1.5-.3-2.5-.1-.4-.2-1.7-.2-1.7-.6-4.5-1.5-11.8-2.3-20.3-1.7-.3-3.2-1.1-4.2-2.3-3.7-1.3-7-3.6-9.4-6.7-1-1.2-1.8-2.5-2.5-3.9-2.7-.2-4.8-2.5-4.8-5.2V79.6c0-11.7 3.3-23 9.7-32.8 6-9.3 14.3-16.7 24.2-21.6 3-3.4 6.5-6.2 10.4-8.3 6.1-3.2 13.2-4.9 21.2-4.9 15.1 0 24.8 11.4 29.4 16.8.5.6 1.1 1.3 1.5 1.7.1.1.2.1.2.2h.5c.3 0 .7 0 1.1-.1.4-.1.8-.1 1.2-.1 3.5 0 6.7 1.8 8.4 4.8 1.4 2.3 1.7 5 1 7.5 8 10.5 12.3 23.4 12.3 36.6v10.1c0 2.8-2.2 5.1-5 5.2-.7 1.4-1.5 2.7-2.5 4-2.6 3.2-6 5.6-9.9 6.9-.1.2-.3.4-.5.5-1.1 1.1-2.4 1.5-3.3 1.6-.7 8.2-1.5 15.2-2.2 20.6-.2 1.8-.3 3.4-.3 3.8 0 3.3-2 6.9-6.3 11.3-2.9 3-6.1 5.5-7.8 6.8-4.1 3.2-14.5 10.4-22.6 10.4" clip-path="url(#SVGID_2_)" fill="#eef1ea"/><defs><path id="SVGID_3_" d="M148 0h151.1v172.7H148z"/></defs><clipPath id="SVGID_4_"><use xlink:href="#SVGID_3_" overflow="visible"/></clipPath><path d="M190.5 99.4l-1.7 3.5H185c-.7 0-1.8-.6-1.8-1.3v-.4h.2l-.2-.1c-3.6-.8-6.6-2.8-8.8-5.6-2.2-2.7-3.4-6.2-3.4-9.9 0-7.4 5.1-13.8 12.3-15.4l.1-.1h-.2v-.4c0-.7 1.1-1.3 1.8-1.3h2.5l2.1 3c.1.8.1 1.6.2 2.3.1 1.9.2 3.9.3 5.8v5c0 1.7 0 3.3.1 5l.3 7.5c-.1.9-.1 1.7 0 2.4" clip-path="url(#SVGID_4_)" fill="#ed827b"/><defs><path id="SVGID_5_" d="M148 0h151.1v172.7H148z"/></defs><clipPath id="SVGID_6_"><use xlink:href="#SVGID_5_" overflow="visible"/></clipPath><path d="M276.1 85.7c0 3.7-1.2 7.1-3.4 9.9-2.2 2.7-5.2 4.7-8.8 5.6l-.6.1h-.4v.4c0 .7 0 1.2-.7 1.2h-3.8l-1.6-3.3c0-.7.1-1.4.1-2.2.1-1.2.1-2.5.2-3.7.1-2 .1-3.9.2-5.9v-5.6-4c.1-1.5.1-3 .2-4.4 0-.8.1-1.6.1-2.4l2-2.9h2.5c.7 0 .7.6.7 1.4v.4h.4l.5.1c7.2 1.5 12.4 8 12.4 15.3" clip-path="url(#SVGID_6_)" fill="#ed827b"/><defs><path id="SVGID_7_" d="M148 0h151.1v172.7H148z"/></defs><clipPath id="SVGID_8_"><use xlink:href="#SVGID_7_" overflow="visible"/></clipPath><path d="M255.4 78.1c0 4.9-.5 19.3-1.1 30-.1 1.5-.2 3-.3 4.3-.4.4-.7.8-1.2 1.1-.2.2-.5.3-.7.5-.8.6-1.8 1-2.8 1.2h-3.8c-.8-.3-1.7-.7-2.6-1.2-.3-.1-.6-.3-.8-.5-2.6-1.4-5.7-3.1-9.5-3.1-1.3 0-2.6.2-3.8.7l-.3.6c-.5.8-1.2 1.4-2 1.8-.3.2-.6.3-.9.4-.6.2-1.2.4-1.8.4h-.7s-.6-.1-.8-.1c-.4-.1-.8-.2-1.1-.3-.1 0-.2-.1-.3-.1-.9-.4-1.8-1-2.4-1.8-.2-.3-.5-.7-.7-1.1-1.2-.4-2.4-.6-3.5-.6-3.8 0-7 1.7-9.5 3.1-.3.2-.6.3-.8.4-.9.5-1.8.9-2.6 1.2h-4.1c-1-.2-1.8-.6-2.7-1.2-.4-.3-.8-.6-1.1-.9-.1-1.1-.2-2.4-.3-3.7-.7-10.7-1.2-26.2-1.2-31.3 0-5.6 1.5-15.9 2.1-19.8.1-.9.9-1.5 1.8-1.4.8 0 1.8.1 2.9.2h.1c.6 0 1.2.1 1.8.1 1.7.1 3.6.2 5.6.3.6 0 1.2.1 1.8.1h.6c6.5.4 13.1.7 15.2.7.7 0 2 0 3.6-.1 6.8-.3 19.9-1.1 24.4-1.3.9-.1 1.6.6 1.8 1.4.1.8.3 1.8.5 3.1.3 5 1.2 12.5 1.2 16.9" clip-path="url(#SVGID_8_)" fill="#eef1ea"/><defs><path id="SVGID_9_" d="M148 0h151.1v172.7H148z"/></defs><clipPath id="SVGID_10_"><use xlink:href="#SVGID_9_" overflow="visible"/></clipPath><path d="M255.4 78.1c0 4.9-.5 19.3-1.1 30-.1 1.5-.2 3-.3 4.3-.4.4-.7.8-1.2 1.1-.2.2-.5.3-.7.5-.8.6-1.8 1-2.8 1.2h-3.8c-.8-.3-1.7-.7-2.6-1.2-.3-.1-.6-.3-.8-.5-2.6-1.4-5.7-3.1-9.5-3.1-1.3 0-2.6.2-3.8.7l-.3.6c-.5.8-1.2 1.4-2 1.8-.3.2-.6.3-.9.4-.6.2-1.2.4-1.8.4h-.7s-.6-.1-.8-.1c-.4-.1-.8-.2-1.1-.3-.1 0-.2-.1-.3-.1-.9-.4-1.8-1-2.4-1.8-.2-.3-.5-.7-.7-1.1-1.2-.4-2.4-.6-3.5-.6-3.8 0-7 1.7-9.5 3.1-.3.2-.6.3-.8.4-.9.5-1.7.9-2.6 1.2h-4.1c-1-.2-1.8-.6-2.7-1.2-.4-.3-.8-.6-1.1-.9-.1-1.1-.2-2.4-.3-3.7-.7-10.7-1.2-26.2-1.2-31.3 0-5.6 1.5-15.9 2.1-19.8.1-.9.9-1.5 1.8-1.4.8 0 1.8.1 2.9.2h.1c.6 0 1.2.1 1.8.1 1.7.1 3.6.2 5.6.3.6 0 1.2.1 1.8.1h.6c6.5.4 13.1.7 15.2.7.7 0 2 0 3.6-.1 6.8-.3 19.9-1.1 24.4-1.3.9-.1 1.6.6 1.8 1.4.1.8.3 1.8.5 3.1.3 5 1.2 12.5 1.2 16.9" clip-path="url(#SVGID_10_)" fill="#eef1ea"/><defs><path id="SVGID_11_" d="M148 0h151.1v172.7H148z"/></defs><clipPath id="SVGID_12_"><use xlink:href="#SVGID_11_" overflow="visible"/></clipPath><path d="M251.9 57.8c-.1.1-.2.1-.2.2-.5.4-1.1.8-1.6 1.2-2.1 1.6-4.3 3-6.7 4.1-2.4 1.1-4.9 2-7.4 2.5-1.7.3-3.4.5-5.1.5-.9 0-1.9-.1-2.8-.2-2.5-.3-5-1-7.4-1.9-3.5-1.3-6.7-3.2-9.7-5.4-.1-.1-.2-.1-.3-.2-.6 0-1.3-.1-1.9-.1h-1.1c7.6 7.1 16 12 25.2 12 6.5 0 13.4-2.4 20.7-8.1-.2-1.2-.3-2.3-.5-3.1 0-.1 0-.2-.1-.2 0-.8-.5-1.2-1.1-1.3" clip-path="url(#SVGID_12_)" fill="#e1e3de"/><defs><path id="SVGID_13_" d="M148 0h151.1v172.7H148z"/></defs><clipPath id="SVGID_14_"><use xlink:href="#SVGID_13_" overflow="visible"/></clipPath><path d="M262 37c-2.5.3-5.1.1-6.7-1.4-3.8-3.8-12.3-17.2-26.9-17.2s-24 6.1-29.7 14.8c-3.8 5.8-11.9 9.6-11.9 15.7 0 6.8 2.8 24.8 2.4 35.1 0 23.6 3.9 46 3.9 48.2 0 4.2 21.1 22.2 30.7 22.2 9.5 0 30.5-16.7 30.5-22.2 0-2.1 3.9-24.9 3.9-48.5-.3-7.4 1.1-22.4 1.9-32.6l.7-.9c2-2.5 3.3-5 4.9-8 1.2-2.6-.9-5.5-3.7-5.2m-8.9 73.3c-.1.2-.2.3-.4.5-1.2 1.4-2.7 2.3-4.6 2.6-.5.1-1.1.1-1.6 0s-1-.3-1.5-.6c-1-.5-1.9-1-2.9-1.6-1.9-1-3.9-2-6.1-2.4-2.4-.5-5-.5-7.4.2-.4-1.3-.8-2.6-1.4-3.8-.1-.2-.3-.3-.5-.2-.2.2-.1.6-.1.8l.3 2.1c.1.7.2 1.3.3 2 .1.5-.4 1-.8 1.3-1 .7-2.1 1.2-3.4 1.1-1.2-.1-2.4-.6-3.1-1.5-.2-.2-.3-.4-.3-.7s.1-.6.2-.9c.1-.7.3-1.4.4-2.1.3-1.4.6-2.8.8-4.1.1-.3.1-.7.2-1s.2-.6.1-.9c-.1-.5-.7-.7-1-.4-.1.1-.2.3-.3.5l-.3.9c-.2.7-.5 1.3-.7 2-.4 1.3-.8 2.7-1.2 4-.1.3-.2.7-.2 1-2.9-.8-6.1-.5-9 .5-1.4.5-2.8 1.2-4.1 1.9-.7.4-1.3.7-2 1.1-.6.3-1.3.7-2 .9-1.3.4-2.9.2-4.1-.4-.9-.4-1.7-1-2.3-1.7-.7-10.5-1.3-27.4-1.3-32.9 0-5.4 1.5-15.5 2.1-19.6 0-.3.3-.5.7-.5 2.1.1 6.1.4 10.4.6 1.1.1 2.1.1 3.1.2 1.5 1.3 3.1 2.5 4.8 3.6 1.7 1.1 3.4 2.1 5.2 2.9 2.1.9 4.3 1.7 6.6 2.2 2.4.5 4.8.6 7.2.5 4.4-.3 8.6-1.7 12.5-3.8 2.5-1.3 4.8-2.9 7.1-4.6.7 4.6 1.9 13.6 1.9 18.6 0 4.7-.6 20.9-1.3 31.7" clip-path="url(#SVGID_14_)" fill="#64c2a0"/><defs><path id="SVGID_15_" d="M148 0h151.1v172.7H148z"/></defs><clipPath id="SVGID_16_"><use xlink:href="#SVGID_15_" overflow="visible"/></clipPath><path d="M251.3 86.2c-3.7-3.7-17.8-2.9-22.4-1.4-.8.3-1.9.9-2.5 2.6-.3.9-.5 1.9-.5 2.9l-1.3-.6c-.7-.3-1.4-.3-2.1 0l-1.1.5c-.1-1-.2-1.9-.5-2.8-.6-1.7-1.7-2.4-2.5-2.6-4.6-1.5-18.8-2.3-22.4 1.4-2.6 2.6-1.9 8-1.4 9.9v.1c1.8 5.3 6 8 12.3 8 6.5 0 10.6-2 13.3-6.5.5-.9 1.1-3 1.3-5.2l1.9-.8c.1-.1.3-.1.4 0l2.2 1c.2 2.2.7 4.2 1.2 5 2.7 4.5 6.8 6.5 13.3 6.5 6.3 0 10.5-2.7 12.3-8v-.1c.4-1.9 1.1-7.4-1.5-9.9m-33 10.4c-1.6 2.7-4.3 5.4-11.5 5.4-5.4 0-8.7-2.1-10.3-6.5-.6-2.3-.7-6.3.9-7.9 2.7-2.7 15.8-2.3 20.3-.9.2.1.7.2 1.2 1.4.9 2.7 0 7.4-.6 8.5m32.4-1.1c-1.6 4.4-4.8 6.5-10.3 6.5-7.2 0-9.9-2.8-11.5-5.4-.7-1.1-1.6-5.8-.6-8.4.4-1.1 1-1.3 1.2-1.4 4.5-1.4 17.6-1.8 20.3.9 1.6 1.5 1.5 5.6.9 7.8" clip-path="url(#SVGID_16_)" fill="#383b3d"/><defs><path id="SVGID_17_" d="M148 0h151.1v172.7H148z"/></defs><clipPath id="SVGID_18_"><use xlink:href="#SVGID_17_" overflow="visible"/></clipPath><path d="M221.2 148.9h-.4c-6.5 0-12.2-.9-12.3-.9-.3-.1-.6-.4-.5-.7s.4-.6.7-.5c.2 0 22.4 3.4 28.9-3.1 4.4-4.4.3-15.6.3-15.7-.1-.3.1-.7.4-.8s.7 0 .8.4c.2.5 4.3 12.1-.6 17-2.8 2.9-8.7 4.3-17.3 4.3" clip-path="url(#SVGID_18_)" fill="#5db694"/><g><defs><path id="SVGID_19_" d="M148 0h151.1v172.7H148z"/></defs><clipPath id="SVGID_20_"><use xlink:href="#SVGID_19_" overflow="visible"/></clipPath><path d="M214.4 142.7c-6.8 0-13.2-.9-13.7-.9-.3 0-.6-.4-.5-.7 0-.3.4-.6.7-.5.1 0 5.7.8 12 .9 8.1.2 13.5-.8 15.5-2.8 4.8-4.8-1.5-12.9-1.6-12.9-.2-.3-.2-.7.1-.9.3-.2.7-.2.9.1.3.4 7 9 1.5 14.6-2.6 2.4-8.9 3.1-14.9 3.1" clip-path="url(#SVGID_20_)" fill="#5db694"/></g><g><defs><path id="SVGID_21_" d="M148 0h151.1v172.7H148z"/></defs><clipPath id="SVGID_22_"><use xlink:href="#SVGID_21_" overflow="visible"/></clipPath><path d="M212.4 135.9c-2.1 0-4.5-.1-7.4-.4-5.8-.6-11.3-1.5-11.3-1.5-.3-.1-.6-.4-.5-.7s.4-.6.7-.5c5.9 1 21.9 3.2 24.9.8.3-.3.5-.6.5-1 0-1.9-2.8-4.8-4-5.7-.3-.2-.3-.6-.1-.9s.6-.3.9-.1c.5.4 4.5 4 4.4 6.7 0 .8-.3 1.5-1 1.9-1 1-3.4 1.4-7.1 1.4" clip-path="url(#SVGID_22_)" fill="#5db694"/></g><g><defs><path id="SVGID_23_" d="M148 0h151.1v172.7H148z"/></defs><clipPath id="SVGID_24_"><use xlink:href="#SVGID_23_" overflow="visible"/></clipPath><path d="M251.7 137.8c-.3 0-.5-.2-.6-.4 0-.1-2-5.2-4.1-10.4-.1-.3 0-.7.4-.8.3-.1.7 0 .8.4 2.1 5.2 4.1 10.4 4.1 10.4.1.3 0 .7-.4.8h-.2" clip-path="url(#SVGID_24_)" fill="#5db694"/></g><g><defs><path id="SVGID_25_" d="M148 0h151.1v172.7H148z"/></defs><clipPath id="SVGID_26_"><use xlink:href="#SVGID_25_" overflow="visible"/></clipPath><path d="M261 44.9c-2.9 0-6.7-.9-11.1-2.8-12-5-24.2-14.8-24.2-23.8 0-.4.3-.6.6-.6.4 0 .6.3.6.6 0 8.4 12.1 17.9 23.4 22.6 6.8 2.8 12.3 3.5 14.1 1.7.2-.2.7-.2.9 0 .2.2.2.7 0 .9-.8 1-2.3 1.4-4.3 1.4" clip-path="url(#SVGID_26_)" fill="#5db694"/></g><g><defs><path id="SVGID_27_" d="M148 0h151.1v172.7H148z"/></defs><clipPath id="SVGID_28_"><use xlink:href="#SVGID_27_" overflow="visible"/></clipPath><path d="M255.8 52.6c-2 0-4.3-.3-6.3-.7-13.7-2.6-32.3-11.8-39.8-29.2-.1-.3 0-.7.3-.8s.7 0 .8.3c7.4 16.9 25.6 25.9 38.9 28.5 5.3 1 8.9.7 9.7-.1.2-.2.7-.2.9 0 .2.2.2.7 0 .9-.7.8-2.4 1.1-4.5 1.1" clip-path="url(#SVGID_28_)" fill="#5db694"/></g><g><defs><path id="SVGID_29_" d="M148 0h151.1v172.7H148z"/></defs><clipPath id="SVGID_30_"><use xlink:href="#SVGID_29_" overflow="visible"/></clipPath><path d="M242.1 58.6c-3 0-6.1-.3-9.3-.9-7.5-1.4-25.9-6.6-34.2-25-.1-.3 0-.7.3-.8.3-.1.7 0 .8.3 8.1 17.9 26 22.9 33.3 24.3 10.4 1.9 20.4.5 24.3-3.3.2-.2.7-.2.9 0s.2.7 0 .9c-2.9 2.9-9 4.5-16.1 4.5" clip-path="url(#SVGID_30_)" fill="#5db694"/></g><g><defs><path id="SVGID_31_" d="M148 0h151.1v172.7H148z"/></defs><clipPath id="SVGID_32_"><use xlink:href="#SVGID_31_" overflow="visible"/></clipPath><path d="M190.7 112.8c-.1.1-.3.2-.3.4-.6 2.8-.8 9.1 2 13.7-.5-3.5-1.1-8.4-1.7-14.1m65.7-.1c-.5 5.3-1.1 9.9-1.5 13.3 2.4-4.4 2.5-10.3 2-12.9-.1-.2-.3-.3-.5-.4" clip-path="url(#SVGID_32_)" fill="#e8e7e6"/></g><g><defs><path id="SVGID_33_" d="M148 0h151.1v172.7H148z"/></defs><clipPath id="SVGID_34_"><use xlink:href="#SVGID_33_" overflow="visible"/></clipPath><path d="M256.3 112.7c-.2 0-.4.1-.5.3-.3.9-.8 2-1.6 3-1.2 1.7-3.1 3.2-5.9 3.4h-.8c-3.1 0-7.7-5-14.5-5-2 0-3.8.5-5.2 1.2l-8.4-.1c-1.4-.6-3-1-4.9-1-6.8 0-11.5 5-14.5 5-.4 0-.8 0-1.2-.1-3-.4-4.9-2.3-6.1-4.2-.5-.8-.8-1.5-1.1-2.2-.1-.2-.3-.3-.5-.3h-.2c.6 5.7 1.2 10.6 1.7 14 .5.8 1 1.5 1.7 2.1 2.4 2.3 6.1 3.9 11.8 3.9 5.7 0 9.8-1.1 12.6-2.4-.9-1.5-2.4-2.9-3.2-3.6-.3-.2-.3-.6-.1-.9.1-.1.3-.2.5-.2.1 0 .3.1.4.2.3.3 2.3 2 3.5 4 2-1.1 3.2-2.2 3.7-2.7.1-.1.2-.1.2-.1.1 0 .2 0 .2.1.6.6 2.4 2.3 5.7 3.6-.9-2.9-2.7-5.2-2.8-5.2-.2-.3-.2-.7.1-.9.1-.1.3-.1.4-.1.2 0 .4.1.5.2.2.2 2.4 3.1 3.3 6.6 2.2.7 4.9 1.3 8.2 1.4-.5-2.7-1.3-4.8-1.3-4.9-.1-.3.1-.7.4-.8h.2c.3 0 .5.2.6.4s.9 2.4 1.4 5.3h.8c3 0 5.5-.5 7.5-1.4-.5-1.4-1.1-2.9-1.8-4.4-.1-.3 0-.7.4-.8h.2c.3 0 .5.2.6.4.6 1.5 1.2 3 1.7 4.3 1-.6 2-1.3 2.7-2 .9-.8 1.6-1.8 2.1-2.9.5-3.2 1.1-7.8 1.5-13.2.1 0 0 0 0 0" clip-path="url(#SVGID_34_)" fill="#61b295"/></g><g><defs><path id="SVGID_35_" d="M148 0h151.1v172.7H148z"/></defs><clipPath id="SVGID_36_"><use xlink:href="#SVGID_35_" overflow="visible"/></clipPath><path d="M238.6 127.1h-.2c-.3.1-.5.5-.4.8 0 0 .8 2.1 1.3 4.9h1.3c-.5-2.9-1.3-5.1-1.4-5.3-.1-.2-.4-.4-.6-.4" clip-path="url(#SVGID_36_)" fill="#59aa8a"/></g><g><defs><path id="SVGID_37_" d="M148 0h151.1v172.7H148z"/></defs><clipPath id="SVGID_38_"><use xlink:href="#SVGID_37_" overflow="visible"/></clipPath><path d="M227.3 124.6c-.1 0-.3 0-.4.1-.3.2-.3.6-.1.9 0 0 1.8 2.3 2.8 5.2l1.5.6c-.9-3.5-3.1-6.4-3.3-6.6-.2-.1-.4-.2-.5-.2" clip-path="url(#SVGID_38_)" fill="#59aa8a"/></g><g><defs><path id="SVGID_39_" d="M148 0h151.1v172.7H148z"/></defs><clipPath id="SVGID_40_"><use xlink:href="#SVGID_39_" overflow="visible"/></clipPath><path d="M215.8 125.8c-.2 0-.4.1-.5.2-.2.3-.2.7.1.9.7.6 2.2 2.1 3.2 3.6.4-.2.8-.4 1.1-.6-1.2-2-3.2-3.7-3.5-4-.1-.1-.3-.1-.4-.1" clip-path="url(#SVGID_40_)" fill="#59aa8a"/></g><g><defs><path id="SVGID_41_" d="M148 0h151.1v172.7H148z"/></defs><clipPath id="SVGID_42_"><use xlink:href="#SVGID_41_" overflow="visible"/></clipPath><path d="M247.7 126.2h-.2c-.3.1-.5.5-.4.8.6 1.5 1.2 3 1.8 4.4.4-.2.8-.4 1.1-.6-.5-1.4-1.1-2.8-1.7-4.3-.1-.2-.4-.3-.6-.3" clip-path="url(#SVGID_42_)" fill="#59aa8a"/></g><g><defs><path id="SVGID_43_" d="M148 0h151.1v172.7H148z"/></defs><clipPath id="SVGID_44_"><use xlink:href="#SVGID_43_" overflow="visible"/></clipPath><path d="M252.4 123.8c-2.4 2.3-6.1 4-11.4 4-11.4 0-16.4-4.5-17.5-5.7-.1-.1-.4-.1-.5 0-1.1 1.2-6.1 5.7-17.4 5.7-5.7 0-9.4-1.6-11.8-3.9-4.6-4.3-4.4-12.5-3.7-15.8.1-.5.8-.6 1-.1.2.7.6 1.4 1.1 2.2 1.1 1.9 3 3.8 6.1 4.2.4.1.8.1 1.2.1 3.1 0 7.7-5 14.5-5 1.9 0 3.5.4 4.9 1h.8c.1.1.1.2.2.3.3.3.6.6 1 .8.2.1.4.2.7.3.3.1.6.2 1 .3l.8.1h.2c.7 0 1.3-.2 1.9-.5.1 0 1.2-.7 1.4-1.1 0 0 0-.1.1-.1h.5c1.4-.6 3.2-1.2 5.2-1.2 6.8 0 11.5 5 14.5 5h.8c2.8-.3 4.7-1.8 5.9-3.4.8-1 1.3-2.1 1.6-3 .2-.5.9-.4 1 .1.7 3.2.4 11.3-4.1 15.7" clip-path="url(#SVGID_44_)" fill="#5dbc97"/></g><g><defs><path id="SVGID_45_" d="M148 0h151.1v172.7H148z"/></defs><clipPath id="SVGID_46_"><use xlink:href="#SVGID_45_" overflow="visible"/></clipPath><path d="M226.9 105.2c.6 2.3 1.1 4.4 1.1 5 0 1.3-2.2 3.2-4.8 3.2-2.5 0-4.8-1.9-4.8-3.2 0-.8 1.3-5.9 2.3-9.3" clip-path="url(#SVGID_46_)" fill="#eef1ea"/></g><g><defs><path id="SVGID_47_" d="M148 0h151.1v172.7H148z"/></defs><clipPath id="SVGID_48_"><use xlink:href="#SVGID_47_" overflow="visible"/></clipPath><path d="M267.1 43.7c.1-.1.1-.2.2-.3.3-.6.6-1.2.7-1.9.2-1.3 0-2.6-.7-3.8-.6-1-1.4-1.8-2.4-2.3-.6-.3-1.2-.5-1.9-.5-.7-.1-1.5.1-2.2.1-1.4.1-3 0-4.1-1.1-1.1-1.1-2-2.3-3-3.4-2-2.3-4-4.5-6.3-6.5-2.2-1.9-4.5-3.6-7.1-4.9-2.6-1.3-5.4-2.3-8.3-2.7-3-.4-6.1-.3-9.1 0s-5.9 1-8.8 1.9c-2.7.9-5.2 2.2-7.6 3.7-2.4 1.6-4.5 3.5-6.4 5.6-.2.3-.4.5-.7.8-19.1 9.1-32.3 28.5-32.3 51v10.1c0 .6.5 1.1 1.1 1.1s1.1-.5 1.1-1.1v-3h.6c.2 3.5 1.5 7 3.7 9.7 2.3 2.8 5.4 4.9 8.9 5.8.2 1.1 1.4 1.8 2.5 1.8h2.8c.2 3.1.5 6.3.8 9.4.3 3.1.7 6.3 1.1 9.4.2 1.6.4 3.1.6 4.7.1.8.2 1.6.3 2.3.1.8.2 1.5.3 2.3 0 .4 0 .7.1 1.1.1.4.2.7.4 1 .3.6.7 1.3 1.1 1.8.8 1.2 1.8 2.3 2.8 3.3 2 2.1 4.3 4.1 6.6 6 2.3 1.9 4.8 3.7 7.3 5.3s5.1 3.1 7.8 4.3c1.4.6 2.8 1.1 4.2 1.4 1.4.3 2.9.3 4.4.1 2.9-.4 5.7-1.7 8.3-3 2.7-1.4 5.2-3 7.7-4.7s4.9-3.6 7.1-5.7c2.2-1.9 4.3-4 5.9-6.4.8-1.2 1.5-2.5 1.7-4 .1-.8.1-1.5.1-2.3.1-.8.2-1.6.3-2.3.4-3.1.8-6.2 1.2-9.4.4-3.1.7-6.3 1-9.4.2-1.8.3-3.5.4-5.3h2.9c.5 0 .9-.1 1.2-.4.4-.4.4-.8.5-1.2h.2c3.7-.8 7.1-2.9 9.5-5.9 2.2-2.8 3.5-6.2 3.7-9.8h.8v3.2c0 .6.5 1.1 1.1 1.1.6 0 1.1-.5 1.1-1.1V79.5c-.3-13.5-5.1-26.1-13.2-35.8m-13.6 86.8c-.1.7-.1 1.4-.2 2.1-.2.7-.5 1.2-.9 1.8s-.8 1.1-1.2 1.7c-1.8 2.2-3.8 4.1-6 5.9-2.1 1.8-4.4 3.5-6.8 5.1-2.3 1.6-4.8 3-7.3 4.2-1.3.6-2.6 1.1-4 1.5s-2.8.7-4.2.5c-1.4-.1-2.8-.6-4.1-1.1-1.3-.5-2.6-1.1-3.8-1.8-2.5-1.3-4.8-2.9-7.1-4.5-2.3-1.7-4.6-3.4-6.7-5.3-1.1-.9-2.1-1.9-3.1-2.9s-1.9-2-2.8-3.1c-.4-.5-.8-1.1-1.1-1.7-.2-.3-.2-.6-.2-.9-.1-.4-.1-.7-.2-1.1-.2-1.5-.4-3-.6-4.4-.1-.7-.2-1.4-.3-2 3.1 3 7.5 4.2 11.7 4.3 4.5.1 9.2-.5 13.4-2.2 1-.4 2-.9 2.9-1.5.5-.3.9-.6 1.3-.9.2-.2.4-.3.6-.5l.3-.3c.1 0 .1 0 .2.1 1.6 1.4 3.5 2.5 5.6 3.3s4.3 1.4 6.5 1.7c2.3.3 4.6.5 6.8.3 2.2-.1 4.4-.5 6.4-1.4 1.8-.7 3.4-1.8 4.7-3.2.3-.3.6-.7.9-1.1-.2 1.7-.4 3.4-.7 5.2.1.7 0 1.4 0 2.2M207.2 25.4c2.4-1.7 5.1-3.1 7.9-4.1 2.9-1 6-1.6 9.1-1.9 3.1-.3 6.3-.3 9.4.4 2.8.7 5.5 1.9 8 3.5s4.7 3.5 6.7 5.6c1.1 1.1 2.1 2.3 3.2 3.5 1 1.2 2 2.4 3.1 3.5 1 1 2.3 1.6 3.8 1.9.8.1 1.6.2 2.4.1.8 0 1.5-.2 2.3-.1 1.3.2 2.2 1.5 2.1 2.8-.1.5-.4 1-.6 1.5-.3.5-.6 1-.8 1.5-.6 1-1.2 2.1-1.9 3.1-1.2 1.9-2.4 3.8-3.9 5.4-.8.9-1.7 1.7-2.5 2.5-.9.8-1.7 1.6-2.6 2.4-1.8 1.5-3.7 2.9-5.6 4.1-3.9 2.5-8.3 4.3-12.9 4.9-2.4.3-4.8.3-7.1-.1s-4.5-1-6.7-1.9c-4.2-1.7-8.1-4.2-11.6-7.1-.9-.7-1.8-1.5-2.7-2.3-.5-.4-.9-.8-1.4-1.2-.2-.2-.4-.4-.6-.5-.1-.1-.4-.3-.6-.1-.2.1-.1.3 0 .5.2.2.4.5.7.7.4.4.8.9 1.2 1.3l1.2 1.2h-.4c-4.4-.2-8.3-.5-10.4-.6-1.4-.1-2.7.9-2.9 2.3-.6 4.1-2.1 14.4-2.1 20 0 4.9.4 18.6 1 29-.1-.1-.3-.3-.5-.4l-.2-.1v-.2c0-.2 0-.4-.1-.7 0-.4-.1-.8-.1-1.2-.1-.8-.1-1.6-.2-2.4-.2-3.2-.4-6.4-.5-9.6-.1-3.2-.2-6.5-.2-9.7a154.68 154.68 0 00-1.2-19.3c-.3-3.2-.7-6.4-.9-9.6-.1-1.6-.2-3.2-.2-4.8 0-1.5.5-2.8 1.3-4.1 1.6-2.4 3.9-4.3 6-6.3 1.1-1 2.2-2.1 3.1-3.2 1-1.2 1.8-2.4 2.6-3.6 1.6-2.6 3.8-4.8 6.3-6.6m45.1 96.8l.2-.2-.1.1-.5.5-.4.4.2-.2-.6.6.3-.3-.3.3c-.1.1-.2.1-.2.2l.1-.1c-3.8 3.2-9.1 3.5-13.9 3-2.6-.3-5.1-.8-7.5-1.8-1.1-.5-2.3-1-3.3-1.7-.5-.3-1-.7-1.5-1.1-.4-.4-.8-.8-1.3-1-.6-.1-1 .2-1.4.6-.4.4-.9.8-1.4 1.2-1 .7-2.1 1.3-3.3 1.8-2.3 1-4.9 1.5-7.4 1.9-4.7.6-10.2.6-14.3-2.3-1.9-1.3-3.2-3.2-3.9-5.3-.8-2.2-1.1-4.6-1.1-6.9 0-.6 0-1.3.1-1.9.1.1.1.2.2.3 1 1.8 2.6 3.4 4.5 4.3 1.1.5 2.2.8 3.4.8 1.3 0 2.5-.4 3.6-.9 2.3-1.1 4.4-2.5 6.8-3.3 1.2-.4 2.5-.7 3.8-.8h2.1c.6.1 1.2.2 1.9.4.2 0 .4.1.5.3.1.3.2.5.4.7.4.5.8.9 1.3 1.3 1 .7 2.2 1.1 3.3 1.2 2.1.2 4.5-.8 5.7-2.6.1-.1.2-.2.2-.4 0-.1.1-.2.2-.3.2-.1.5-.2.7-.2.6-.2 1.3-.3 1.9-.4 1.3-.1 2.7 0 3.9.2 2.5.5 4.8 1.7 7 2.9 1.1.6 2.3 1.3 3.5 1.6s2.4.2 3.6-.1c2.1-.5 3.9-1.8 5.2-3.5.4-.5.7-1 1-1.6.1 1.8-.1 3.7-.4 5.5-.4 1.7-.9 3.3-1.8 4.9-.5.8-1 1.6-1.7 2.3.3 0 .5-.2.7-.4m-25.7-16.4l.3 2.1c.1.7.2 1.3.3 2 .1.5-.4 1-.8 1.3-1 .7-2.1 1.2-3.4 1.1-1.2-.1-2.4-.6-3.1-1.5-.2-.2-.3-.4-.3-.7s.1-.6.2-.9c.1-.7.3-1.4.4-2.1.3-1.4.6-2.8.8-4.1.1-.3.1-.7.2-1s.2-.6.1-.9c-.1-.5-.7-.7-1-.4-.1.1-.2.3-.3.5l-.3.9c-.2.7-.5 1.3-.7 2-.4 1.3-.8 2.7-1.2 4-.1.3-.2.7-.2 1-2.9-.8-6.1-.5-9 .5-1.4.5-2.8 1.2-4.1 1.9-.7.4-1.3.7-2 1.1-.6.3-1.3.7-2 .9-1.3.4-2.9.2-4.1-.4-.9-.4-1.7-1-2.3-1.7-.7-10.5-1.3-27.4-1.3-32.9 0-5.4 1.5-15.5 2.1-19.6 0-.3.3-.5.7-.5 2.1.1 6.1.4 10.4.6 1.1.1 2.1.1 3.1.2 1.5 1.3 3.1 2.5 4.8 3.6 1.7 1.1 3.4 2.1 5.2 2.9 2.1.9 4.3 1.7 6.6 2.2 2.4.5 4.8.6 7.2.5 4.4-.3 8.6-1.7 12.5-3.8 2.5-1.3 4.8-2.9 7.1-4.6.7 4.6 1.9 13.6 1.9 18.6 0 5.2-.6 21.4-1.3 32.2-.1.2-.2.3-.4.5-1.2 1.4-2.7 2.3-4.6 2.6-.5.1-1.1.1-1.6 0s-1-.4-1.5-.6c-1-.5-1.9-1-2.9-1.6-1.9-1-3.9-2-6.1-2.4-2.4-.5-5-.5-7.4.2-.4-1.3-.8-2.6-1.4-3.8-.1-.2-.3-.3-.5-.2-.3-.4-.1 0-.1.3m28.8.9c.6-10.5 1-23.8 1-28.6 0-5.6-1.5-15.8-2.1-20v-.2c.8-.7 1.5-1.3 2.3-2 .8-.8 1.7-1.5 2.4-2.4-.3 3.5-.6 6.9-.9 10.4s-.5 6.9-.7 10.4c-.1 1.7-.2 3.5-.2 5.2v5.2c0 3.5-.1 6.9-.3 10.4-.2 3.4-.4 6.9-.7 10.3 0 .4-.1.8-.1 1.2-.2 0-.4 0-.7.1m-72.3-6.7c-3.2-.8-5.9-2.5-8-5.1-2.1-2.6-3.2-5.9-3.2-9.2 0-6.8 4.6-12.7 11.2-14.3V100zm-.6-30.6c-7 1.8-11.9 7.7-12.5 14.8h-.7v-4.6c0-20.1 11-37.7 27.2-47.1-.6.8-1.2 1.6-2 2.3-2 2-4.2 3.8-6.1 5.9-1.8 2-3.4 4.3-3.8 7-.1.7-.1 1.5 0 2.3 0 .8.1 1.6.1 2.4.1 1.6.3 3.1.4 4.7.3 3.1.6 6.2.9 9.4 0 .3 0 .5.1.8h-1.2c-1.1 0-2.2 1-2.4 2.1m1.9 32.3V69.4h1.9c.2 2.1.3 4.2.5 6.3.1 1.6.2 3.1.2 4.7v2.4c0 .7-.1 1.5-.1 2.2 0 3.2.1 6.3.2 9.5.1 2.4.2 4.8.4 7.2h-3.1zm77.2 0h-2.2c0-.7.1-1.3.1-2 .2-3.2.3-6.3.4-9.5.1-3.2.1-6.3.1-9.5.1-3.2.3-6.3.4-9.4 0-.6.1-1.3.1-1.9h1l.1 32.3zm10.2-6.8c-2.1 2.6-5 4.4-8.2 5.2l-.7.1V71.3l.7.1c6.7 1.5 11.5 7.6 11.5 14.4-.1 3.3-1.2 6.5-3.3 9.1m6.1-10.7h-.8c-.7-7.2-6-13.3-13.1-14.9h-.1c0-.5-.1-1-.5-1.4-.2-.2-.6-.5-1.2-.5h-1.4c.1-1.8.2-3.5.4-5.3.2-3.1.5-6.3.8-9.4 0-.3 0-.6.1-.9.2-.3.4-.5.6-.8.5-.6.9-1.2 1.3-1.9.7-1.1 1.4-2.3 2-3.4 7.5 9.3 11.9 21.1 11.9 33.9v4.6zm-86.8 26.2" clip-path="url(#SVGID_48_)" fill="#383b3d"/></g><g><defs><path id="SVGID_49_" d="M148 0h151.1v172.7H148z"/></defs><clipPath id="SVGID_50_"><use xlink:href="#SVGID_49_" overflow="visible"/></clipPath><path clip-path="url(#SVGID_50_)" fill="#383b3d" d="M265.1 40.7"/></g><g opacity=".1"><linearGradient id="SVGID_51_" gradientUnits="userSpaceOnUse" x1="99.407" y1="879.13" x2="395.159" y2="530.453" gradientTransform="matrix(1 0 0 -1 0 1012.833)"><stop offset="0" stop-color="#2d4d6d"/><stop offset="1" stop-color="#4b7999"/></linearGradient><circle cx="158.1" cy="202.9" r="6.7" fill="url(#SVGID_51_)"/><linearGradient id="SVGID_52_" gradientUnits="userSpaceOnUse" x1="119.064" y1="895.803" x2="414.817" y2="547.126" gradientTransform="matrix(1 0 0 -1 0 1012.833)"><stop offset="0" stop-color="#2d4d6d"/><stop offset="1" stop-color="#4b7999"/></linearGradient><circle cx="191.9" cy="202.9" r="6.7" fill="url(#SVGID_52_)"/><linearGradient id="SVGID_53_" gradientUnits="userSpaceOnUse" x1="138.721" y1="912.477" x2="434.474" y2="563.8" gradientTransform="matrix(1 0 0 -1 0 1012.833)"><stop offset="0" stop-color="#2d4d6d"/><stop offset="1" stop-color="#4b7999"/></linearGradient><circle cx="225.7" cy="202.9" r="6.7" fill="url(#SVGID_53_)"/><linearGradient id="SVGID_54_" gradientUnits="userSpaceOnUse" x1="158.437" y1="929.199" x2="454.19" y2="580.523" gradientTransform="matrix(1 0 0 -1 0 1012.833)"><stop offset="0" stop-color="#2d4d6d"/><stop offset="1" stop-color="#4b7999"/></linearGradient><circle cx="259.6" cy="202.9" r="6.7" fill="url(#SVGID_54_)"/><linearGradient id="SVGID_55_" gradientUnits="userSpaceOnUse" x1="178.093" y1="945.874" x2="473.846" y2="597.197" gradientTransform="matrix(1 0 0 -1 0 1012.833)"><stop offset="0" stop-color="#2d4d6d"/><stop offset="1" stop-color="#4b7999"/></linearGradient><circle cx="293.4" cy="202.9" r="6.7" fill="url(#SVGID_55_)"/><linearGradient id="SVGID_56_" gradientUnits="userSpaceOnUse" x1="85.644" y1="867.455" x2="381.396" y2="518.779" gradientTransform="matrix(1 0 0 -1 0 1012.833)"><stop offset="0" stop-color="#2d4d6d"/><stop offset="1" stop-color="#4b7999"/></linearGradient><circle cx="158.1" cy="230.8" r="6.7" fill="url(#SVGID_56_)"/><linearGradient id="SVGID_57_" gradientUnits="userSpaceOnUse" x1="105.301" y1="884.129" x2="401.054" y2="535.452" gradientTransform="matrix(1 0 0 -1 0 1012.833)"><stop offset="0" stop-color="#2d4d6d"/><stop offset="1" stop-color="#4b7999"/></linearGradient><circle cx="191.9" cy="230.8" r="6.7" fill="url(#SVGID_57_)"/><linearGradient id="SVGID_58_" gradientUnits="userSpaceOnUse" x1="124.958" y1="900.803" x2="420.711" y2="552.126" gradientTransform="matrix(1 0 0 -1 0 1012.833)"><stop offset="0" stop-color="#2d4d6d"/><stop offset="1" stop-color="#4b7999"/></linearGradient><circle cx="225.7" cy="230.8" r="6.7" fill="url(#SVGID_58_)"/><linearGradient id="SVGID_59_" gradientUnits="userSpaceOnUse" x1="144.673" y1="917.525" x2="440.426" y2="568.849" gradientTransform="matrix(1 0 0 -1 0 1012.833)"><stop offset="0" stop-color="#2d4d6d"/><stop offset="1" stop-color="#4b7999"/></linearGradient><circle cx="259.6" cy="230.8" r="6.7" fill="url(#SVGID_59_)"/><linearGradient id="SVGID_60_" gradientUnits="userSpaceOnUse" x1="164.331" y1="934.199" x2="460.083" y2="585.523" gradientTransform="matrix(1 0 0 -1 0 1012.833)"><stop offset="0" stop-color="#2d4d6d"/><stop offset="1" stop-color="#4b7999"/></linearGradient><circle cx="293.4" cy="230.8" r="6.7" fill="url(#SVGID_60_)"/><g><linearGradient id="SVGID_61_" gradientUnits="userSpaceOnUse" x1="71.88" y1="855.782" x2="367.634" y2="507.104" gradientTransform="matrix(1 0 0 -1 0 1012.833)"><stop offset="0" stop-color="#2d4d6d"/><stop offset="1" stop-color="#4b7999"/></linearGradient><circle cx="158.1" cy="258.7" r="6.7" fill="url(#SVGID_61_)"/><linearGradient id="SVGID_62_" gradientUnits="userSpaceOnUse" x1="91.537" y1="872.456" x2="387.291" y2="523.777" gradientTransform="matrix(1 0 0 -1 0 1012.833)"><stop offset="0" stop-color="#2d4d6d"/><stop offset="1" stop-color="#4b7999"/></linearGradient><circle cx="191.9" cy="258.7" r="6.7" fill="url(#SVGID_62_)"/><linearGradient id="SVGID_63_" gradientUnits="userSpaceOnUse" x1="111.195" y1="889.129" x2="406.949" y2="540.451" gradientTransform="matrix(1 0 0 -1 0 1012.833)"><stop offset="0" stop-color="#2d4d6d"/><stop offset="1" stop-color="#4b7999"/></linearGradient><circle cx="225.7" cy="258.7" r="6.7" fill="url(#SVGID_63_)"/><linearGradient id="SVGID_64_" gradientUnits="userSpaceOnUse" x1="130.91" y1="905.851" x2="426.664" y2="557.174" gradientTransform="matrix(1 0 0 -1 0 1012.833)"><stop offset="0" stop-color="#2d4d6d"/><stop offset="1" stop-color="#4b7999"/></linearGradient><circle cx="259.6" cy="258.7" r="6.7" fill="url(#SVGID_64_)"/><linearGradient id="SVGID_65_" gradientUnits="userSpaceOnUse" x1="150.567" y1="922.526" x2="446.32" y2="573.848" gradientTransform="matrix(1 0 0 -1 0 1012.833)"><stop offset="0" stop-color="#2d4d6d"/><stop offset="1" stop-color="#4b7999"/></linearGradient><circle cx="293.4" cy="258.7" r="6.7" fill="url(#SVGID_65_)"/></g><g><linearGradient id="SVGID_66_" gradientUnits="userSpaceOnUse" x1="58.117" y1="844.107" x2="353.871" y2="495.43" gradientTransform="matrix(1 0 0 -1 0 1012.833)"><stop offset="0" stop-color="#2d4d6d"/><stop offset="1" stop-color="#4b7999"/></linearGradient><circle cx="158.1" cy="286.6" r="6.7" fill="url(#SVGID_66_)"/><linearGradient id="SVGID_67_" gradientUnits="userSpaceOnUse" x1="77.775" y1="860.781" x2="373.529" y2="512.103" gradientTransform="matrix(1 0 0 -1 0 1012.833)"><stop offset="0" stop-color="#2d4d6d"/><stop offset="1" stop-color="#4b7999"/></linearGradient><circle cx="191.9" cy="286.6" r="6.7" fill="url(#SVGID_67_)"/><linearGradient id="SVGID_68_" gradientUnits="userSpaceOnUse" x1="97.431" y1="877.455" x2="393.185" y2="528.778" gradientTransform="matrix(1 0 0 -1 0 1012.833)"><stop offset="0" stop-color="#2d4d6d"/><stop offset="1" stop-color="#4b7999"/></linearGradient><circle cx="225.7" cy="286.6" r="6.7" fill="url(#SVGID_68_)"/><linearGradient id="SVGID_69_" gradientUnits="userSpaceOnUse" x1="117.147" y1="894.178" x2="412.901" y2="545.5" gradientTransform="matrix(1 0 0 -1 0 1012.833)"><stop offset="0" stop-color="#2d4d6d"/><stop offset="1" stop-color="#4b7999"/></linearGradient><circle cx="259.6" cy="286.6" r="6.7" fill="url(#SVGID_69_)"/><linearGradient id="SVGID_70_" gradientUnits="userSpaceOnUse" x1="136.804" y1="910.851" x2="432.558" y2="562.174" gradientTransform="matrix(1 0 0 -1 0 1012.833)"><stop offset="0" stop-color="#2d4d6d"/><stop offset="1" stop-color="#4b7999"/></linearGradient><circle cx="293.4" cy="286.6" r="6.7" fill="url(#SVGID_70_)"/></g><g><linearGradient id="SVGID_71_" gradientUnits="userSpaceOnUse" x1="44.354" y1="832.433" x2="340.107" y2="483.757" gradientTransform="matrix(1 0 0 -1 0 1012.833)"><stop offset="0" stop-color="#2d4d6d"/><stop offset="1" stop-color="#4b7999"/></linearGradient><circle cx="158.1" cy="314.5" r="6.7" fill="url(#SVGID_71_)"/><linearGradient id="SVGID_72_" gradientUnits="userSpaceOnUse" x1="64.011" y1="849.107" x2="359.765" y2="500.43" gradientTransform="matrix(1 0 0 -1 0 1012.833)"><stop offset="0" stop-color="#2d4d6d"/><stop offset="1" stop-color="#4b7999"/></linearGradient><circle cx="191.9" cy="314.5" r="6.7" fill="url(#SVGID_72_)"/><linearGradient id="SVGID_73_" gradientUnits="userSpaceOnUse" x1="83.669" y1="865.78" x2="379.422" y2="517.103" gradientTransform="matrix(1 0 0 -1 0 1012.833)"><stop offset="0" stop-color="#2d4d6d"/><stop offset="1" stop-color="#4b7999"/></linearGradient><circle cx="225.7" cy="314.5" r="6.7" fill="url(#SVGID_73_)"/><linearGradient id="SVGID_74_" gradientUnits="userSpaceOnUse" x1="103.384" y1="882.504" x2="399.136" y2="533.827" gradientTransform="matrix(1 0 0 -1 0 1012.833)"><stop offset="0" stop-color="#2d4d6d"/><stop offset="1" stop-color="#4b7999"/></linearGradient><circle cx="259.6" cy="314.5" r="6.7" fill="url(#SVGID_74_)"/><linearGradient id="SVGID_75_" gradientUnits="userSpaceOnUse" x1="123.041" y1="899.177" x2="418.794" y2="550.5" gradientTransform="matrix(1 0 0 -1 0 1012.833)"><stop offset="0" stop-color="#2d4d6d"/><stop offset="1" stop-color="#4b7999"/></linearGradient><circle cx="293.4" cy="314.5" r="6.7" fill="url(#SVGID_75_)"/></g><g><linearGradient id="SVGID_76_" gradientUnits="userSpaceOnUse" x1="30.592" y1="820.759" x2="326.344" y2="472.082" gradientTransform="matrix(1 0 0 -1 0 1012.833)"><stop offset="0" stop-color="#2d4d6d"/><stop offset="1" stop-color="#4b7999"/></linearGradient><circle cx="158.1" cy="342.4" r="6.7" fill="url(#SVGID_76_)"/><linearGradient id="SVGID_77_" gradientUnits="userSpaceOnUse" x1="50.248" y1="837.434" x2="346.001" y2="488.756" gradientTransform="matrix(1 0 0 -1 0 1012.833)"><stop offset="0" stop-color="#2d4d6d"/><stop offset="1" stop-color="#4b7999"/></linearGradient><circle cx="191.9" cy="342.4" r="6.7" fill="url(#SVGID_77_)"/><linearGradient id="SVGID_78_" gradientUnits="userSpaceOnUse" x1="69.905" y1="854.106" x2="365.659" y2="505.43" gradientTransform="matrix(1 0 0 -1 0 1012.833)"><stop offset="0" stop-color="#2d4d6d"/><stop offset="1" stop-color="#4b7999"/></linearGradient><circle cx="225.7" cy="342.4" r="6.7" fill="url(#SVGID_78_)"/><linearGradient id="SVGID_79_" gradientUnits="userSpaceOnUse" x1="89.621" y1="870.829" x2="385.374" y2="522.153" gradientTransform="matrix(1 0 0 -1 0 1012.833)"><stop offset="0" stop-color="#2d4d6d"/><stop offset="1" stop-color="#4b7999"/></linearGradient><circle cx="259.6" cy="342.4" r="6.7" fill="url(#SVGID_79_)"/><linearGradient id="SVGID_80_" gradientUnits="userSpaceOnUse" x1="109.279" y1="887.503" x2="405.031" y2="538.826" gradientTransform="matrix(1 0 0 -1 0 1012.833)"><stop offset="0" stop-color="#2d4d6d"/><stop offset="1" stop-color="#4b7999"/></linearGradient><circle cx="293.4" cy="342.4" r="6.7" fill="url(#SVGID_80_)"/></g></g><g><linearGradient id="SVGID_81_" gradientUnits="userSpaceOnUse" x1="-393.486" y1="185.849" x2="-391.487" y2="59.383" gradientTransform="scale(1 -1) rotate(-12.691 -1991.282 -2236.037)"><stop offset="0" stop-color="#84dbc7"/><stop offset="1" stop-color="#339cb0"/></linearGradient><path d="M65.8 395.1S68.7 293 79.3 258.2s20.2-46.4 20.2-46.4 2 28.1-1.5 55.8c-3.5 27.7-20.9 128.3-20.9 128.3s-.1 14.8-11.3-.8z" fill="url(#SVGID_81_)"/><path class="st57" d="M99.5 211.8S74.9 313.2 70.2 400.3m10.3-146l6.6 15.9 11.5-9"/><path class="st57" d="M73.1 291.2l7.4 15.5 13.8-14.6m-24.4 30.2l5.9 18.4 12.3-10.6m-20.7 29.2l4.9 12.3 10.3-8.6"/><linearGradient id="SVGID_82_" gradientUnits="userSpaceOnUse" x1="6.865" y1="257.648" x2="-38.848" y2="399.703" gradientTransform="matrix(.9992 .04 .04 -.9992 54.405 616.679)"><stop offset="0" stop-color="#84dbc7"/><stop offset="1" stop-color="#33c2cf"/></linearGradient><path d="M68.5 430.2S22.8 245.7 48.8 228.6s29.8 202.2 29.8 202.2l-10.1-.6z" fill="url(#SVGID_82_)"/><path class="st59" d="M74.1 430.5S50 283.5 49.8 228M41 268.6l12.6 13.2 12.1-24.2"/><path class="st59" d="M45.2 311.8l12.6 6.8 13.1-22m-20.3 50.5l12.5 10.3 11.5-19.1M57 378.5l10.1 7.3 9.4-14.4"/><linearGradient id="SVGID_83_" gradientUnits="userSpaceOnUse" x1="92.68" y1="219.439" x2="201.997" y2="47.816" gradientTransform="matrix(1 0 0 -1 -73.785 647.676)"><stop offset="0" stop-color="#c7e2ff"/><stop offset="1" stop-color="#a3cbef"/></linearGradient><path d="M99 603.2l-49.9.3c-3 0-5.3-2.9-4.8-6.1l11.1-192.7c.4-2.5 2.4-4.3 4.7-4.3l22.4-.1c2.4 0 4.4 1.8 4.8 4.3l16.4 192.5c.6 3.2-1.7 6.1-4.7 6.1z" fill="url(#SVGID_83_)"/><linearGradient id="SVGID_84_" gradientUnits="userSpaceOnUse" x1="-318.807" y1="495.233" x2="-280.783" y2="452.25" gradientTransform="scale(1 -1) rotate(-2.807 -17916.82 -7473.378)"><stop offset="0" stop-color="#c7e2ff"/><stop offset="1" stop-color="#a3cbef"/></linearGradient><path d="M85.8 411.2H55.3c-5 0-9.1-4.4-9.1-9.8s4.1-9.8 9.1-9.8h30.5c5 0 9.1 4.4 9.1 9.8s-4.1 9.8-9.1 9.8z" fill="url(#SVGID_84_)"/></g><g><defs><path id="SVGID_85_" d="M0 1.5h151.1v212.1H0z"/></defs><clipPath id="SVGID_86_"><use xlink:href="#SVGID_85_" overflow="visible"/></clipPath><path d="M41.1 201.1c-4.4 0-8-3-10.7-9-1.7-3.7-2.8-7.8-2.8-10.6 0-3.3 1.7-10.2 3-14.8-1.1-2.2-1.3-4.8-.8-7.2-.9-1.4-1.4-3-1.4-4.7 0-1.4.4-3.3 2-5.3-1-4.7-2.8-14.6-4.5-26.8-3.9-1.4-6.6-5.1-6.6-9.3V100c0-3 1.4-5.8 3.6-7.6v-.7c-.3-5-.4-9.9-.4-14.5 0-.7 0-1.4.1-2.1l-.1-7.1v-2.9c0-.3 0-.5.1-.8.1-.8.1-1.5.2-2.3v-.1c0-.3.1-.7.1-1 .1-.6.1-1.3.3-2l.2-1.5v-.1-.8c0-.6-.1-1.4.2-2.4.1-.4.2-.7.3-1.1 0-.2.1-.3.1-.5 1.1-4 2.8-8 5-11.8 1-1.8 2.2-3.5 3.5-5.4v-.1l.1-.1c.2-.2.4-.5.6-.7.4-.5.9-1.1 1.4-1.7l1-1.1.8-.8.3-.3c1.3-1.4 2.7-2.7 4.7-4.4 1.4-1.1 3.2-2.5 5.2-3.7 1.9-1.3 3.9-2.3 5.6-3.1h.2c2.3-1.1 4.2-1.8 5.9-2.4 4.2-1.4 8.4-2.3 12.6-2.7h.1c.3 0 .5 0 .8-.1.7-.1 1.5-.1 2.4-.1h4.6l1.5.1c.9 0 1.6.1 2.3.2.3 0 .6.1.8.1h.1c4.1.6 8.3 1.7 12.4 3.3 3.9 1.5 7.7 3.6 11.3 6.1 1.9 1.3 3.6 2.8 5 4 1.4 1.3 3 2.8 4.4 4.6 1.2 1.4 2.5 3 3.9 5.1 1 1.5 2.2 3.4 3.2 5.5.1.1.1.3.2.4.2.3.3.6.5 1v.1l.6 1.3c.3.7.6 1.5.9 2.1.1.3.2.6.3.8v.2c.3.9.6 1.9 1 2.9.4 1.3.3 2.4.2 3.1l.1.4c.7 3.9 1.4 8.1 1.4 12.4l-.3 15.8c0 2.6-.1 5.3-.2 8.5 2.2 1.9 3.6 4.6 3.6 7.6V113c0 4.4-3 8.3-7.2 9.5l-5.8 1.6c-1.1 2.2-3.3 3.7-5.9 4-.8 2.9-1.7 5.3-2.6 7-2.3 4.6-9.2 11.4-14.4 15.9-8.7 7.4-15.5 11-20.7 11-4.7 0-10.8-3-18.5-9.2-2.4-1.9-4.8-4.1-7.1-6.2-.2.7-.4 1.4-.5 1.9 1.3 2.5 1.3 4.7 1 6.2-.2 1-.6 1.9-1 2.6.6 1.9 1.1 4.9-.4 8 1.2 3.9 3.3 11.1 3.3 15.3 0 .2 0 4.5-1 9-.7 2.8-1.6 5.1-2.8 6.9-1.6 3.1-4.3 4.6-7.3 4.6" clip-path="url(#SVGID_86_)" fill="#eef1ea"/><defs><path id="SVGID_87_" d="M0 1.5h151.1v212.1H0z"/></defs><clipPath id="SVGID_88_"><use xlink:href="#SVGID_87_" overflow="visible"/></clipPath><path d="M36.8 117.4c-.2 0-.4 0-.6-.1-1.4-.2-3-1.3-3.9-2.4-.4-.5-.6-1-.6-1.4l9.4-1.1c0-.3-.1-.6-.1-.8 4-.8 8-2 11.8-3.6 4.3-1.8 8.5-3.9 12.5-6.3.8-.5 1.5-.9 2.3-1.4 1-.7 2.1-1.4 3.1-2.1 2.1-1.5 4.1-3 6-4.6 3.5-2.9 6.9-6.2 9.9-9.6s5.8-7.1 8.1-11.1c1.5-2.6 2.8-5.3 3.8-8.2 1.3 1.2 2.6 2.6 3.7 4-.1.3-.2.7-.3 1-7 20.4-31.8 42.7-58.1 46.9l-2.4.3-3.6.3c-.4.1-.7.1-1 .2" clip-path="url(#SVGID_88_)" fill="#e0e2dc"/><defs><path id="SVGID_89_" d="M0 1.5h151.1v212.1H0z"/></defs><clipPath id="SVGID_90_"><use xlink:href="#SVGID_89_" overflow="visible"/></clipPath><path d="M102.3 45s-4.2-15.7-26.7-15.7-46.8 25.6-46.8 47.8c0 12.8 1.1 25.8 2.4 37.3.3.2.7.4 1 .5h.1c.4.1.9.2 1.3.2.9 0 1.7-.1 2.5-.2v3.9l-3.6-1-1-.3c2.5 19.5 5.7 33.7 5.7 33.7v1.7c.3-.2.6-.5 1-.7.5-.3 1.1-.7 1.7-.9.7-.3 1.2-.4 1.5-.4h.1c.1 0 .2.1.3.1l.7.7v-1.4s1.6-9.8 5.8-16.3c-.1-.2-.2-.3-.4-.5-.6-.9-1.1-1.9-1.5-2.9-.5-1.2-.8-2.4-1.2-3.6-.4-1.3-.8-2.7-1.1-4.1-.2-.6-.3-1.3-.4-1.9v-7.8c.4-.1.9-.2 1.3-.3H45.3c4.5-1.2 9-2.8 13.2-4.8 4.3-2.1 8.4-4.5 12.3-7.3.1-.1.3-.2.4-.3.9-.7 1.9-1.4 2.8-2.1 2.7-2.1 5.3-4.3 7.8-6.7 3.4-3.3 6.6-6.9 9.4-10.7 2.8-3.9 5.3-8.1 7.1-12.5.2-.5.4-1.1.6-1.6 1 1 1.8 2 2.7 3.1.7.9 1.4 1.9 2 2.8 1.4 2.1 2.6 4.4 3.6 6.7 1.1 2.4 1.9 5 2.4 7.6.2 1 .4 2 .5 3 .2 1.8.3 3.5.3 5.3 0 1-.1 2-.1 3.1 0 .7-.1 1.4-.1 2.1-.1 1.1-.2 2.2-.3 3.4v.1l1.7-.8c.1-.9.1-1.7.2-2.6v-.1c0-.7.1-1.4.1-2.1.1-1.7.1-3.4.1-5.1 0-.7-.1-1.4-.1-2.1h.1c.6 0 1.1.5 1.1 1.1v10.2l1.3-.6c.1-.3.1-.7.2-1v-6.5l.8.2c4.1-31.1-.1-49.7-13.1-49.7m-60.9 69.2v6.6c0 .6-.5 1.1-1.1 1.1h-1.5c-.6 0-1.1-.5-1.1-1.1v-6.1c.9-.1 1.9-.2 2.8-.4h.1c.3.1.5 0 .8-.1m1.1 48.1c-.1.3-.4.6-.7 1l-.3.3c-1.8 1.7-2.7 1.6-3.3 1.2-.1-.1-.2-.2-.3-.2-.3-.3-.5-.6-.7-1v3.1S34 178.1 34 181.6s3.5 13.1 7 13.1 4.9-9.3 4.9-13.7-3.4-14.9-3.4-14.9v-3.8zm-.4-3.4c.2.4.3.8.4 1.2v-5.3l-.1.1c-.4.5-.8 1.1-.9 1.8v.4c.1.5.4 1.2.6 1.8m-3.9.1c.2-.3.5-.7.4-1.3 0-.3-.2-.6-.4-.8-.3-.3-.6-.5-1-.7v4.1c.2-.4.4-.7.7-1l.3-.3" clip-path="url(#SVGID_90_)" fill="#ed827b"/><defs><path id="SVGID_91_" d="M0 1.5h151.1v212.1H0z"/></defs><clipPath id="SVGID_92_"><use xlink:href="#SVGID_91_" overflow="visible"/></clipPath><path d="M28.8 77.8v-1.4c9.9 0 25.7-18.7 25.7-40.8h1.4c.1 23.3-16.3 42.2-27.1 42.2" clip-path="url(#SVGID_92_)" fill="#b87072"/><g><defs><path id="SVGID_93_" d="M0 1.5h151.1v212.1H0z"/></defs><clipPath id="SVGID_94_"><use xlink:href="#SVGID_93_" overflow="visible"/></clipPath><path d="M30.2 96.8v-1.4c9.7 0 20.3-6.8 29.1-18.6C66.9 66.6 72.1 54 72.1 45.4c0-5.4-1.2-10.5-3.8-15.1l1.3-.7c2.6 4.8 4 10.1 4 15.8-.1 16.9-20.3 51.4-43.4 51.4" clip-path="url(#SVGID_94_)" fill="#b87072"/></g><g><defs><path id="SVGID_95_" d="M0 1.5h151.1v212.1H0z"/></defs><clipPath id="SVGID_96_"><use xlink:href="#SVGID_95_" overflow="visible"/></clipPath><path d="M30.8 107.5l-.1-1.4c18.2-1.6 33-8.2 42.8-19.3 8.6-9.6 13.2-22.4 13.1-36-.1-7.1-1.4-14-3.9-20.6l1.3-.5c2.6 6.8 4 13.9 4 21.1.3 23.8-14.5 53-57.2 56.7" clip-path="url(#SVGID_96_)" fill="#b87072"/></g><g><defs><path id="SVGID_97_" d="M0 1.5h151.1v212.1H0z"/></defs><clipPath id="SVGID_98_"><use xlink:href="#SVGID_97_" overflow="visible"/></clipPath><path d="M80.3 115.6c.8.7 1.4 1.8 1.8 2.8.2.7.4 1.3.4 2 0 .3-.1.7-.3 1-.4.6-1 1-1.6 1.4s-1.2.8-1.8 1.1c-1.3.7-2.8 1.1-4.2.8-1.5-.2-2.8-1.1-4-1.9-.6-.4-1.2-.8-1.6-1.3-.3-.4-.4-.8-.3-1.3.1-1.4.6-2.9 1.2-4.2.3-.6.5-1.1.9-1.6.3-.4.6-.9 1-1.2.2-.2.6 0 .5.3 0 .2-.2.4-.3.5-.3.5-.5 1-.8 1.6-.5 1.3-.9 2.8-1 4.2v.7-.1c.6.5 1.3.9 1.9 1.3.7.4 1.5.9 2.4 1 .8.2 1.7.1 2.5-.1.6-.2 1.2-.6 1.8-.9.4-.2.8-.4 1.2-.7.2-.1.4-.2.5-.4.1 0 .3-.2.3-.3v.1-.1.1c0-1-.1-2-.4-3-.2-.5-.3-.9-.6-1.3-.1-.2-.3-.3-.2-.5.2-.1.6-.2.7 0" clip-path="url(#SVGID_98_)" fill="#383b3d"/></g><g><defs><path id="SVGID_99_" d="M0 1.5h151.1v212.1H0z"/></defs><clipPath id="SVGID_100_"><use xlink:href="#SVGID_99_" overflow="visible"/></clipPath><path d="M68.2 130.7c.9.1 1.8.2 2.8.3l3.6.3c2.4.1 4.8-.1 7.3-.5.4 0 .8-.1 1.2-.1s.7.5.3.8c-.1.1-.2.1-.3.1-.2.1-.5.2-.7.3-.5.2-1.1.4-1.6.6-2.4.7-5 .9-7.5.6-1.3-.2-2.6-.5-3.8-.9-.5-.2-1-.3-1.4-.6-.6-.2-.5-.9.1-.9" clip-path="url(#SVGID_100_)" fill="#c8cac7"/></g><g><defs><path id="SVGID_101_" d="M0 1.5h151.1v212.1H0z"/></defs><clipPath id="SVGID_102_"><use xlink:href="#SVGID_101_" overflow="visible"/></clipPath><path d="M34.8 154.7c0-2.1 6.1-6.1 7.7-4.5 3.8 3.8 0 5 0 6.6s2.6 4.4 0 7c-1.4 1.4-3.4 3-5.2 1.2-1.8-1.8-1.7-4.8 0-6.5 1.7-1.6-2.5-1.3-2.5-3.8" clip-path="url(#SVGID_102_)" fill="#ebc080"/></g><g><defs><path id="SVGID_103_" d="M0 1.5h151.1v212.1H0z"/></defs><clipPath id="SVGID_104_"><use xlink:href="#SVGID_103_" overflow="visible"/></clipPath><path d="M126.7 99.8v13.4c0 2-1.4 3.8-3.3 4.4l-8.8 2.5v.7c0 1.3-1 2.3-2.3 2.3h-1.5c-1.3 0-2.3-1-2.3-2.3v-5.4c.1-.3.1-.6.2-.8 0-.2.1-.4.1-.6.1-.5.2-1.1.3-1.6 0-.1 0-.3.1-.4l.3-1.8c0-.2 0-.4.1-.5.1-.4.1-.8.2-1.2 0-.3.1-.6.1-.9.2-1.3.3-2.6.4-3.8.1-1.1.2-2.2.3-3.4.1-.7.1-1.4.1-2.1.1-1 .1-2 .1-3.1 0-1.8 0-3.5-.3-5.3h1.9c1.3 0 2.3 1 2.3 2.3v.7l8.8 2.5c1.9.5 3.2 2.3 3.2 4.4" clip-path="url(#SVGID_104_)" fill="#64c2a0"/></g><g><defs><path id="SVGID_105_" d="M0 1.5h151.1v212.1H0z"/></defs><clipPath id="SVGID_106_"><use xlink:href="#SVGID_105_" overflow="visible"/></clipPath><path d="M42.6 112.8v8c0 1.3-1 2.3-2.3 2.3h-1.5c-1.3 0-2.3-1-2.3-2.3v-.7l-4.9-1.4-3.9-1.1c-2-.6-3.3-2.4-3.3-4.4V99.8c0-2 1.4-3.8 3.3-4.4l1.6-.5c.4 5.7.9 11.2 1.4 16.5.2 1.5 1.4 2.6 2.9 2.5 1.1-.1 2.2-.1 3.2-.3 2.1-.2 3.9-.5 5.8-.8" clip-path="url(#SVGID_106_)" fill="#64c2a0"/></g><g><defs><path id="SVGID_107_" d="M0 1.5h151.1v212.1H0z"/></defs><clipPath id="SVGID_108_"><use xlink:href="#SVGID_107_" overflow="visible"/></clipPath><path d="M124.3 94.4c.1-3.6.2-7.2.2-10.9l.3-15.7c.1-3.9-.6-7.8-1.3-11.6-.1-.5-.2-1-.1-1.5s.1-1.1 0-1.5c-.3-.9-.6-1.9-.9-2.8-.4-.9-.7-1.9-1.1-2.8l-.6-1.4c-.2-.4-.4-.9-.7-1.3-.9-1.8-1.9-3.5-3-5.1s-2.3-3.2-3.6-4.7-2.7-2.9-4.1-4.3c-1.5-1.3-3-2.6-4.6-3.7-3.2-2.3-6.7-4.2-10.4-5.7s-7.5-2.5-11.5-3.1c-1-.1-1.9-.3-3-.3l-1.5-.1H74c-1 0-2 .1-3 .2-3.9.3-7.8 1.2-11.6 2.5-1.9.6-3.7 1.4-5.5 2.2-1.8.9-3.5 1.8-5.2 2.9-1.7 1-3.3 2.2-4.8 3.5s-3 2.6-4.4 4c-.3.4-.7.7-1 1.1l-1 1.1c-.7.7-1.2 1.5-1.9 2.3-1.2 1.6-2.3 3.2-3.3 5-2 3.4-3.6 7.1-4.6 10.9-.1.5-.3 1-.4 1.4-.1.5-.1 1-.1 1.5s0 1-.1 1.5l-.1 1.5c-.2 1-.2 1.9-.4 2.9-.1 1-.2 2-.2 3V68.3l.1 2.8.1 4c0 .7-.1 1.4-.1 2 0 4.8.1 9.6.4 14.4l.1 3c-2.2.9-3.6 3-3.6 5.4v13.4c0 2.6 1.7 4.8 4.2 5.5l2 .6c2 15.7 4.5 27.8 5.3 31.3-1.2 1.1-2.3 2.5-2.3 4.1 0 1.9 1.1 3 2.1 3.7-1.3 2.3-1.2 5.3.4 7.5v.3c-.6 2.1-3.2 11.7-3.2 15.2 0 2.2 1 5.8 2.4 8.9 2 4.4 4.4 6.6 7 6.6 7.2 0 7.3-15.9 7.3-16.1 0-4.3-2.8-13.1-3.4-15.2v-.9c2-2.7.9-5.6.3-7.1-.1-.2-.2-.4-.2-.6l.1-.2c.8-1.1 2.8-3.7 0-7.3.4-2 1.4-6.3 3.2-10.4 3 3.4 7.2 7.3 11.3 10.7 6.9 5.5 12.2 8.3 15.9 8.3 2.8 0 8.3-1.7 18-10 6.3-5.3 11.8-11.3 13.4-14.6 1.2-2.4 2.3-6.2 3.1-9.3.3.1.5.1.8.1h1.5c1.9 0 3.4-1.5 3.5-3.3l7.9-2.2c2.5-.7 4.2-3 4.2-5.5V100c-.3-2.6-1.7-4.7-3.9-5.6M30.7 58.7c.1-.4.3-.9.5-1.3s.5-.8.6-1.2c.1-.4.3-.9.4-1.3 1-3.4 2.5-6.7 4.3-9.8 1.8-3.1 4-5.9 6.5-8.5 1.2-1.3 2.6-2.5 3.9-3.7 1.4-1.1 2.8-2.2 4.3-3.2s3.1-1.8 4.7-2.6 3.3-1.5 5-2c3.4-1.2 6.9-2 10.5-2.3.9-.1 1.8-.2 2.7-.2h4.1l1.3.1c.9 0 1.8.2 2.6.3 3.5.5 7 1.5 10.3 2.8s6.5 3.1 9.4 5.2c1.5 1 2.8 2.2 4.2 3.4 1.3 1.2 2.6 2.5 3.7 3.8 1.2 1.3 2.2 2.8 3.3 4.2 1 1.5 1.9 3 2.8 4.6l.6 1.2.6 1.2c.4.8.7 1.7 1 2.5s.6 1.7.9 2.5c.1.4.4.8.7 1.2.1.2.3.4.4.6.1.2.1.4.2.7 1 3.5 1.3 7.2 1.4 10.8l.3 15.7c.1 3.4.1 6.8.2 10.2l-3.6-1c1.1-9.4 1.3-17.6.9-24.5-.7-9.6-2.8-16.6-6.5-20.8-2.4-2.8-5.3-4.3-8.8-4.7-.7-1.7-2.2-4.5-4.9-7.2-3.8-3.9-11-8.6-23.5-8.6-11.3 0-23.5 6-33.6 16.3-5 5.1-8.9 10.9-11.6 16.8l.2-1.2zm70.4-3.1c-.1-.2-.3-.3-.5-.2-.2.1-.2.2-.3.4v.8c-.1 1.2-.2 2.3-.4 3.5-.3 1.6-.7 3.2-1.3 4.7-1 2.8-2.3 5.6-3.8 8.2-2.3 4-5 7.6-8.1 11.1-3.1 3.4-6.4 6.7-9.9 9.6-2 1.6-4 3.1-6 4.6-1 .7-2 1.4-3.1 2.1-.7.5-1.5 1-2.3 1.4-4 2.4-8.2 4.6-12.5 6.3-3.8 1.5-7.8 2.8-11.8 3.6-.6.1-1.1.2-1.7.3-2.1.3-4.3.5-6.5.6-.5-.2-.8-.7-.9-1.2-.2-1.7-.4-3.3-.6-5.1l-.3-2.7c-.1-1.1-.2-2.1-.3-3.2-.1-.7-.1-1.4-.2-2.1-.3-4.3-.6-8.6-.7-13 0-1.6-.1-3.1-.1-4.7v-3.2c0-1 .1-2 .1-3 .2-1.8.5-3.6.9-5.3v-.2c.1-.3.1-.6.2-.9s.2-.6.2-.9c.6-2 1.4-4.1 2.3-6.1.6-1.2 1.2-2.4 1.9-3.6.1-.2.2-.3.3-.5.1-.1.2-.3.2-.4.2-.3.3-.5.5-.8l.1-.2c1.1-1.8 2.4-3.6 3.7-5.3 2.2-2.8 4.6-5.3 7.2-7.7 2.6-2.3 5.4-4.5 8.5-6.3 3-1.8 6.2-3.3 9.6-4.4 1.7-.5 3.5-1 5.3-1.2 1.8-.3 3.7-.4 5.5-.3 3.6.1 7.2.6 10.6 1.7 3.1 1 6.1 2.6 8.5 4.8 2.5 2.2 4.6 5 5.6 8.1.1.2.1.3.2.5l.1.3.1.2v.1H102.7c.9 0 1.7.2 2.5.4 1.6.4 3 1.3 4.2 2.4.6.6 1.1 1.2 1.6 1.9l.1.1.1.2c.6.9 1.2 1.9 1.7 3.1.5 1.1.9 2.3 1.2 3.4 1 3.6 1.5 7.2 1.8 10.9.3 3.8.3 7.5.1 11.3-.1 3.5-.4 7-.8 10.5-.6-.9-1.7-1.5-2.9-1.5h-.4c-.1-.8-.3-1.7-.5-2.5-1-4.3-2.6-8.5-4.8-12.3-1.1-1.9-2.3-3.7-3.6-5.4-.7-.9-1.4-1.7-2.1-2.5-.2-.2-.4-.4-.5-.6l-.3-.3c-.1-.1-.3-.2-.3-.3 0-.1.1-.3.1-.4s.1-.3.1-.4c.1-.3.2-.6.2-.9.5-2.3.9-4.6.9-6.9.1-.2.1-.4 0-.6m-60 138c-2.5 0-6-8.5-6-12.2 0-3.3 3.1-14.5 3.2-14.6v-.1c.3.1.5.1.8.1.8 0 1.7-.3 2.6-.9V166.2c0 .1 3.4 10.4 3.4 14.6-.1 7.5-2.4 12.8-4 12.8m.5-36.6c0 .6.3 1.2.5 1.9.2.4.3.8.4 1.2.2.8.3 1.5 0 2.2-.1.3-.4.6-.7 1l-.3.3c-1.8 1.7-2.7 1.6-3.3 1.2-.1-.1-.2-.2-.3-.2-.3-.3-.5-.6-.7-1-.2-.5-.4-1.1-.4-1.6s.1-1.1.4-1.5c.2-.4.4-.7.7-1l.3-.3c.2-.3.5-.7.4-1.3 0-.3-.2-.6-.4-.8-.3-.3-.6-.5-1-.7l-.2-.1c-.3-.2-.6-.3-.8-.5-.4-.3-.6-.5-.6-.9 0-.2.2-.6.6-1 .3-.3.6-.6 1-.9.3-.2.6-.5 1-.7.5-.3 1.1-.7 1.7-.9.7-.3 1.2-.4 1.5-.4h.1c.1 0 .2 0 .3.1l.7.7c1.2 1.5.7 2.2 0 3.1l-.1.1c-.4.5-.8 1.1-.9 1.8v.2h.1zm.2-8.1c-.6-.1-1.5 0-2.6.5-.4.2-.8.3-1.2.6-.7-3.2-3-14.7-5-29.7l2.4.7c.1 1.8 1.6 3.3 3.5 3.3h1.5c.8 0 1.6-.3 2.2-.8.3 1.1.6 2.2.9 3.4.6 2.2 1.3 4.5 2.4 6.5l.9 1.5c-3 5.1-4.5 11.4-5 14m-4.1-28.1v-6.1c.9-.1 1.9-.2 2.8-.4h.1c.2 0 .5-.1.7-.1v6.6c0 .6-.5 1.1-1.1 1.1h-1.4c-.6 0-1.1-.5-1.1-1.1m-8.6-4.1l-1-.3c-1.4-.4-2.4-1.7-2.4-3.2V99.8c0-1.1.5-2 1.3-2.7h1l.3 3.2c.5 4.3 1.2 10.1 1.3 11.3 0 .4.2.8.3 1.1v.1l.1.1c0 .1.1.1.1.2.1.1.1.2.2.3s.1.2.2.2l.1.1.2.2.1.1.3.3c.3.2.7.4 1 .5h.1c.4.1.9.2 1.3.2.9 0 1.7-.1 2.5-.2v3.9l-3.6-1-1-.3-2.4-.7zm80.6-8.3c-.1.4-.1.8-.2 1.2 0 .2 0 .4-.1.5l-.3 1.8c0 .1 0 .3-.1.4-.1.5-.2 1.1-.3 1.6 0 .2-.1.4-.1.6 0 .3-.1.6-.1.8 0 .1 0 .3-.1.4-.1.3-.1.6-.2.9-.1.4-.2.8-.2 1.3v.2c-.1.2-.1.5-.2.7-.1.4-.2.8-.3 1.3-.1.4-.2.7-.2 1.1-.6 2.5-1.2 4.9-1.9 7.3-.4 1.3-.9 2.5-1.5 3.7-.6 1.1-1.3 2.1-2.1 3.1-1.7 2.1-3.6 4-5.5 5.9s-3.9 3.7-6 5.3c-2.1 1.7-4.2 3.3-6.4 4.7-1.1.7-2.2 1.4-3.4 2s-2.4 1.1-3.7 1.4c-.6.1-1.2.2-1.8.1-.7-.1-1.3-.2-2-.5-1.3-.4-2.5-1.1-3.7-1.7-2.4-1.3-4.6-2.9-6.7-4.6-2.1-1.6-4.1-3.4-6.1-5.2-2-1.8-3.9-3.7-5.7-5.7-.7-.7-1.3-1.5-1.9-2.3-.1-.1-.2-.3-.3-.4-.1-.1-.2-.2-.3-.4-.1-.2-.2-.3-.4-.5-.6-.9-1.1-1.9-1.5-2.9-.5-1.2-.8-2.4-1.2-3.6-.4-1.3-.8-2.7-1.1-4.1-.2-.6-.3-1.3-.4-1.9v-7.8c.4-.1.9-.2 1.3-.3H45.3c4.5-1.2 9-2.8 13.2-4.8 4.3-2.1 8.4-4.5 12.3-7.3.1-.1.3-.2.4-.3.9-.7 1.9-1.4 2.8-2.1 2.7-2.1 5.3-4.3 7.8-6.7 3.4-3.3 6.6-6.9 9.4-10.7 2.8-3.9 5.3-8.1 7.1-12.5.2-.5.4-1.1.6-1.6 1 1 1.8 2 2.7 3.1.7.9 1.4 1.9 2 2.8 1.4 2.1 2.6 4.4 3.6 6.7 1.1 2.4 1.9 5 2.4 7.6.2 1 .4 2 .5 3 .2 1.8.3 3.5.3 5.3 0 1-.1 2-.1 3.1 0 .7-.1 1.4-.1 2.1-.1 1.1-.2 2.2-.3 3.4v.1c-.1 1.2-.3 2.5-.4 3.7.3.1.2.4.2.7m3.8 12.4c0 .6-.5 1.1-1.1 1.1h-1.5c-.3 0-.6-.1-.8-.3s-.3-.5-.3-.8V118l.6-3.3c.7-3.9 1.2-7.8 1.5-11.7.1-.9.1-1.7.2-2.6v-.1c0-.7.1-1.4.1-2.1.1-1.7.1-3.4.1-5.1 0-.7-.1-1.4-.1-2.1h.1c.6 0 1.1.5 1.1 1.1l.1 28.7zm12-7.6c0 1.5-1 2.8-2.5 3.2l-6.2 1.8-2 .6V94.3l.8.2 2.3.7 4 1.1 1 .3c.4.1.8.3 1.2.6.8.6 1.3 1.6 1.3 2.6l.1 13.4z" clip-path="url(#SVGID_108_)" fill="#383b3d"/></g></g></svg>